<svg width="24" height="25" viewBox="0 0 24 25" xmlns="http://www.w3.org/2000/svg">
<path d="M13.0002 8.60449V16.6045C13.0002 17.4001 12.6842 18.1632 12.1216 18.7258C11.559 19.2884 10.7959 19.6045 10.0002 19.6045H7.83024C7.59434 20.272 7.13005 20.8346 6.51944 21.1929C5.90883 21.5511 5.19122 21.682 4.49345 21.5623C3.79569 21.4426 3.1627 21.0801 2.70637 20.5389C2.25004 19.9976 1.99976 19.3124 1.99976 18.6045C1.99976 17.8965 2.25004 17.2114 2.70637 16.6701C3.1627 16.1289 3.79569 15.7664 4.49345 15.6467C5.19122 15.527 5.90883 15.6579 6.51944 16.0161C7.13005 16.3744 7.59434 16.937 7.83024 17.6045H10.0002C10.2655 17.6045 10.5198 17.4991 10.7073 17.3116C10.8949 17.1241 11.0002 16.8697 11.0002 16.6045V8.60449C11.0002 7.80884 11.3163 7.04578 11.8789 6.48317C12.4415 5.92056 13.2046 5.60449 14.0002 5.60449H17.0002V2.60449L22.0002 6.60449L17.0002 10.6045V7.60449H14.0002C13.735 7.60449 13.4807 7.70985 13.2931 7.89739C13.1056 8.08492 13.0002 8.33928 13.0002 8.60449ZM5.00024 19.6045C5.26546 19.6045 5.51981 19.4991 5.70735 19.3116C5.89489 19.1241 6.00024 18.8697 6.00024 18.6045C6.00024 18.3393 5.89489 18.0849 5.70735 17.8974C5.51981 17.7098 5.26546 17.6045 5.00024 17.6045C4.73503 17.6045 4.48067 17.7098 4.29314 17.8974C4.1056 18.0849 4.00024 18.3393 4.00024 18.6045C4.00024 18.8697 4.1056 19.1241 4.29314 19.3116C4.48067 19.4991 4.73503 19.6045 5.00024 19.6045Z" />
</svg>
