<svg width="37" height="29" viewBox="0 0 37 29" xmlns="http://www.w3.org/2000/svg">
<path d="M8.05877 3.23464C8.63139 2.80476 10.0879 2.30931 11.059 2.21409C11.2901 2.19145 11.7832 2.182 12.1547 2.19318C13.8117 2.24287 15.4194 2.84026 16.478 3.79951C16.6835 3.98575 17.412 4.8786 17.3811 4.90628C17.3437 4.9399 16.3607 5.13193 15.9577 5.18439C15.4305 5.25296 15.1608 5.21524 14.5445 4.98668C13.8521 4.72978 13.7418 4.69043 13.4192 4.58522C12.9428 4.42987 12.1507 4.28867 11.6028 4.26153L11.0837 4.23577L11.4792 4.40367C11.8602 4.56534 12.4107 4.87583 12.6164 5.04497L13.0119 5.36989C13.6146 5.86489 14.0242 5.99917 14.9154 5.99403C15.6793 5.98963 16.111 5.90301 17.1491 5.54605C17.4939 5.42744 17.838 5.33044 17.9138 5.33044C18.1503 5.33044 20.2029 6.07694 20.9095 6.41986C21.7251 6.81573 22.2841 7.32201 22.4857 7.84721C22.615 8.18425 22.6579 8.76127 22.5835 9.16209C22.4996 9.61358 22.1772 10.2283 21.7927 10.67C21.6669 10.8146 21.6339 10.8309 21.592 10.7689C21.5645 10.7281 21.5413 10.6503 21.5406 10.5959C21.5347 10.1643 21.2082 9.61769 20.846 9.43288C20.4186 9.21484 19.8809 9.13767 18.9343 9.15858C18.0079 9.179 17.4237 9.2583 16.6798 9.46467C16.189 9.60083 15.4058 9.90355 14.9534 10.132C14.0275 10.5993 12.6521 11.5362 11.8542 12.2431C10.4705 13.4689 9.17237 14.9901 8.22167 16.4998C7.94876 16.9332 7.38207 17.9473 7.19637 18.3345C6.59063 19.5978 6.24103 20.4935 5.99061 21.4234C5.72087 22.4252 5.71498 22.4235 5.7445 21.3492C5.75903 20.819 5.79196 20.1293 5.81767 19.8166C5.84338 19.5038 5.88906 18.9476 5.91912 18.5805C6.05172 16.9619 6.31984 15.1731 6.63433 13.8095C7.0704 11.9187 7.66117 10.2439 8.77838 7.73142C8.9711 7.29808 9.11863 6.93335 9.10627 6.92099C8.99097 6.8057 7.2163 9.17702 6.67057 10.1756C6.45882 10.5631 5.84412 11.7952 5.74559 12.0296C5.04511 13.6964 4.58111 15.4509 4.35299 17.2951C4.23942 18.2133 4.21016 21.136 4.3038 22.2144C4.38503 23.1501 4.52351 24.0735 4.68192 24.7359C4.84295 25.409 4.9176 25.7989 4.88522 25.7975C4.79563 25.7935 3.87737 24.0083 3.40091 22.9119C2.52215 20.8897 1.98468 19.0259 1.68136 16.949C1.54194 15.9945 1.5546 13.7432 1.70416 12.8949C2.06705 10.8363 2.72397 9.16807 3.93774 7.22273C4.52386 6.28335 5.72843 4.95587 6.72234 4.15409C7.10783 3.84311 7.80978 3.35281 7.86956 3.35281C7.88706 3.35281 7.9722 3.29966 8.05877 3.23464Z" />
<path d="M14.0007 16.2846C15.9906 15.3154 18.311 14.7381 20.7494 14.6055C21.2363 14.579 23.0363 14.6245 23.5675 14.6767C25.1345 14.8307 27.1865 15.3222 28.6243 15.888C29.8484 16.3696 31.1056 16.9924 32.2938 17.7054C32.5899 17.8832 34.0575 18.8685 34.2525 19.0206C34.5614 19.2613 35.4255 19.9875 35.4157 19.9981C35.4114 20.0028 35.1856 19.9414 34.9138 19.8616C33.5523 19.4619 31.2631 18.9588 29.1048 18.5849C26.6267 18.1556 23.405 17.984 21.0547 18.1561C17.5493 18.4129 14.5285 19.2377 12.0725 20.6085C11.9909 20.654 11.7907 20.7655 11.6275 20.8562C10.6948 21.3749 9.01287 22.6957 8.29687 23.4719C8.2325 23.5417 8.07538 23.71 7.94763 23.846C7.66735 24.1443 7.05893 24.8724 6.74938 25.2798C6.51553 25.5875 5.76606 26.7044 5.59949 26.9934C5.32252 27.4738 5.62915 26.3705 6.1994 24.8348C7.60268 21.0557 10.3203 18.0771 14.0007 16.2846Z" />
<path d="M18.8212 20.905C19.4853 20.7843 19.8337 20.7386 20.873 20.6363C20.9817 20.6256 21.5029 20.6253 22.0311 20.6357C23.9661 20.6737 25.6728 21.0169 27.7452 21.7846C28.296 21.9886 28.6365 22.1265 28.9286 22.2637C29.0663 22.3283 29.3904 22.4775 29.6487 22.5951C30.2535 22.8705 32.1243 23.8342 32.1003 23.8581C32.0903 23.8682 31.6959 23.8203 31.2238 23.7518C25.9594 22.9875 21.8103 22.9415 17.7888 23.6025C16.3202 23.8439 15.2696 24.0864 13.6546 24.5565C13.1154 24.7135 11.4972 25.2913 10.9354 25.5274C9.71162 26.0418 8.53018 26.6262 7.67773 27.139C7.40882 27.3007 7.1809 27.4252 7.17121 27.4155C7.13838 27.3827 8.1177 26.4185 8.61315 25.9959C11.1614 23.8221 13.497 22.4853 16.5022 21.4805C17.2087 21.2443 17.9029 21.0721 18.8212 20.905Z"/>
</svg>
